<svg xmlns:dc="http://purl.org/dc/elements/1.1/" xmlns:cc="http://creativecommons.org/ns#" xmlns:rdf="http://www.w3.org/1999/02/22-rdf-syntax-ns#" xmlns:svg="http://www.w3.org/2000/svg" xmlns="http://www.w3.org/2000/svg" xmlns:sodipodi="http://sodipodi.sourceforge.net/DTD/sodipodi-0.dtd" xmlns:inkscape="http://www.inkscape.org/namespaces/inkscape" viewBox="0 0 12.7 15.875" version="1.1" x="0px" y="0px"><g transform="translate(0,-284.29998)"><path style="" d="m 2.9892918,287.8978 a 0.36431659,0.36431659 0 0 0 -0.3481916,0.3638 v 0.28164 a 2.1961389,2.1961389 0 0 0 -0.4357688,-0.29973 1.145436,1.145436 0 0 0 -1.65655619,1.22577 3.5538634,3.5538634 0 0 0 2.11349169,2.62051 1.145436,1.145436 0 0 0 0.7873999,0.87643 9.8546831,9.8546831 0 0 0 5.7996666,0 1.145436,1.145436 0 0 0 0.7876646,-0.87643 3.5538634,3.5538634 0 0 0 2.114021,-2.62051 1.145436,1.145436 0 0 0 -1.657615,-1.22577 2.1961389,2.1961389 0 0 0 -0.435239,0.29973 v -0.28164 a 0.36431659,0.36431659 0 0 0 -0.4558774,-0.35243 12.907249,12.907249 0 0 1 -6.5050458,0 0.36431659,0.36431659 0 0 0 -0.10795,-0.0114 z m -1.3316479,0.42323 a 0.93754915,0.93754915 0 0 1 0.4516438,0.10645 1.988252,1.988252 0 0 1 0.5318125,0.40566 v 3.01997 a 3.3459764,3.3459764 0 0 1 -1.88780207,-2.42207 0.93754915,0.93754915 0 0 1 0.90434577,-1.11001 z m 9.3265621,5.3e-4 a 0.93754915,0.93754915 0 0 1 0.962819,1.10949 3.3459764,3.3459764 0 0 1 -1.88886,2.42208 v -3.01998 a 1.9882521,1.9882521 0 0 1 0.531812,-0.40566 0.93754915,0.93754915 0 0 1 0.394229,-0.10593 z m -5.0762954,1.0914 h 0.8831791 v 0.81701 h 0.8165042 v 0.88212 H 6.7910897 v 0.817 H 5.9079106 v -0.817 h -0.815975 v -0.88212 h 0.815975 z" fill="#e53935" stroke="none"/></g></svg>